#!OML:ASF X:\für Bonn\!DataBase\2005_08_12_Daniel\c3d\Daniel.ASF
:FULLY-SPECIFIED
:DEGREES
110
root 9.42981 15.9985 -0.746848 -731.196 -78.5282 725.757
lowerback 5.23911 -14.7628 -0.449905
upperback 0.514299 -19.6993 1.04948
thorax -1.75547 -9.83965 2.51468
lowerneck 1.85075 11.31 4.43937
upperneck 5.8397 15.5896 -12.0023
head 2.73925 7.5264 -3.86871
rclavicle 5.66909e-014 -1.66979e-014
rhumerus -57.312 -10.0254 -73.21
rradius 35.3475
rwrist 7.19287
rhand -22.1636 14.6253
rfingers 7.12502
rthumb 4.25077 -15.312
lclavicle 5.66909e-014 -1.66979e-014
lhumerus -30.2333 11.7653 84.5721
lradius 126.415
lwrist 198.098
lhand -8.21253 22.1172
lfingers 7.12502
lthumb 17.7043 51.3312
rfemur -39.6284 -0.778342 13.8258
rtibia 49.7303
rfoot -5.45106 -1.9191
rtoes -9.76307
lfemur 18.7741 -8.50145 -15.4046
ltibia 50.3721
lfoot 6.26838 3.76079
ltoes -18.4468
111
root 9.26788 16.015 -0.794032 -730.588 -79.185 724.616
lowerback 5.51724 -14.6814 -0.263166
upperback 0.65053 -19.5825 1.01509
thorax -1.83836 -9.78229 2.45522
lowerneck 1.88004 11.4588 4.13505
upperneck 6.00142 15.7833 -11.8107
head 2.7607 7.6119 -3.75729
rclavicle 1.48952e-013 -1.43125e-014
rhumerus -56.4255 -10.4382 -74.0289
rradius 36.4046
rwrist 6.16316
rhand -23.4712 14.6664
rfingers 7.12502
rthumb 2.98806 -15.2924
lclavicle 1.48952e-013 -1.43125e-014
lhumerus -31.8507 11.886 84.0938
lradius 125.81
lwrist 197.625
lhand -8.01255 21.7161
lfingers 7.12502
lthumb 17.8968 50.9126
rfemur -38.7927 -0.308183 14.6497
rtibia 50.0898
rfoot -6.01719 -1.67989
rtoes -9.31049
lfemur 17.2648 -8.31464 -15.0731
ltibia 53.6515
lfoot 8.59838 3.07704
ltoes -17.9263
112
root 9.11111 16.0264 -0.839722 -730.173 -79.8354 723.683
lowerback 5.78519 -14.5801 -0.12372
upperback 0.794772 -19.4417 0.951816
thorax -1.90252 -9.71305 2.38184
lowerneck 1.85304 11.5897 3.83344
upperneck 6.20135 15.9552 -11.5932
head 2.79824 7.68394 -3.6357
rclavicle -2.05338e-013 2.54444e-014
rhumerus -55.3357 -10.6011 -75.1283
rradius 37.3412
rwrist 5.13189
rhand -24.7655 14.7691
rfingers 7.12502
rthumb 1.73802 -15.2035
lclavicle -2.05338e-013 2.54444e-014
lhumerus -33.4121 11.9804 83.5146
lradius 125.155
lwrist 197.191
lhand -7.81219 21.1328
lfingers 7.12502
lthumb 18.0895 50.3116
rfemur -37.9893 0.134572 15.3981
rtibia 50.4531
rfoot -6.58501 -1.42064
rtoes -8.95723
lfemur 15.5712 -8.07297 -14.7725
ltibia 57.1143
lfoot 10.7178 2.23012
ltoes -17.308
113
root 8.95965 16.0372 -0.883268 -729.915 -80.4843 722.933
lowerback 6.04905 -14.465 -0.0143568
upperback 0.925913 -19.2839 0.883007
thorax -1.9703 -9.63495 2.31445
lowerneck 1.87551 11.716 3.47735
upperneck 6.37498 16.115 -11.3593
head 2.8126 7.75129 -3.50692
rclavicle -3.92258e-014 4.77083e-015
rhumerus -54.173 -10.7429 -76.2476
rradius 38.3215
rwrist 4.58115
rhand -25.9496 14.8438
rfingers 7.12502
rthumb 0.594416 -15.1351
lclavicle -3.92258e-014 4.77083e-015
lhumerus -34.9391 12.108 82.8388
lradius 124.495
lwrist 196.916
lhand -7.74635 20.3706
lfingers 7.12502
lthumb 18.1529 49.5435
rfemur -37.2053 0.563162 16.0713
rtibia 50.7987
rfoot -7.13259 -1.16456
rtoes -8.75688
lfemur 13.6196 -7.77393 -14.5148
ltibia 60.7691
lfoot 12.2617 1.19085
ltoes -17.5644
114
root 8.81289 16.0496 -0.925792 -730.093 -81.1248 722.636
lowerback 6.33239 -14.3259 0.012776
upperback 1.05055 -19.0992 0.784252
thorax -2.0398 -9.5427 2.25693
lowerneck 1.90843 11.8114 3.1657
upperneck 6.53692 16.2338 -11.1563
head 2.82393 7.79926 -3.39689
rclavicle -5.5464e-014 1.11319e-014
rhumerus -52.9835 -10.9039 -77.3689
rradius 39.3226
rwrist 4.54834
rhand -27.0268 14.8851
rfingers 7.12502
rthumb -0.445957 -15.0942
lclavicle -5.5464e-014 1.11319e-014
lhumerus -36.6259 12.3349 82.1521
lradius 123.886
lwrist 196.833
lhand -7.84165 19.8115
lfingers 7.12502
lthumb 18.0612 48.9929
rfemur -36.4172 1.00574 16.635
rtibia 51.1274
rfoot -7.68884 -0.940872
rtoes -8.83339
lfemur 11.4124 -7.40061 -14.3291
ltibia 64.5808
lfoot 13.3045 -0.0814627
ltoes -18.0108
115
root 8.67244 16.0618 -0.965912 -730.487 -81.7441 722.573
lowerback 6.6318 -14.174 -0.0111039
upperback 1.16989 -18.9009 0.684294
thorax -2.10779 -9.44346 2.22236
lowerneck 1.97873 11.8835 2.87639
upperneck 6.54426 16.2862 -10.6567
head 3.07524 7.84713 -3.56771
rclavicle -6.33797e-014 5.56597e-015
rhumerus -51.7294 -10.9752 -78.545
rradius 40.3353
rwrist 4.8421
rhand -27.9463 14.9362
rfingers 7.12502
rthumb -1.33405 -15.0394
lclavicle -6.33797e-014 5.56597e-015
lhumerus -38.405 12.6939 81.4755
lradius 123.35
lwrist 196.888
lhand -8.14657 19.4336
lfingers 7.12502
lthumb 17.7678 48.6419
rfemur -35.6256 1.47877 17.124
rtibia 51.3933
rfoot -8.20786 -0.768033
rtoes -8.78619
lfemur 8.9843 -7.00918 -14.2144
ltibia 68.5172
lfoot 14.0248 -1.5035
ltoes -17.4581
116
root 8.53948 16.0715 -1.00339 -731.222 -82.3769 722.868
lowerback 6.9678 -13.9931 -0.0843862
upperback 1.26916 -18.6674 0.574246
thorax -2.2052 -9.32549 2.20836
lowerneck 2.14349 11.9278 2.68209
upperneck 6.67059 16.3364 -10.5635
head 3.06392 7.86552 -3.51006
rclavicle -9.24069e-014 9.54166e-015
rhumerus -50.5428 -10.9053 -79.7716
rradius 41.4292
rwrist 5.4327
rhand -28.7701 14.91
rfingers 7.12502
rthumb -2.12963 -15.0591
lclavicle -9.24069e-014 9.54166e-015
lhumerus -40.1762 12.9485 80.7141
lradius 122.905
lwrist 197.151
lhand -8.4124 19.1039
lfingers 7.12502
lthumb 17.512 48.3352
rfemur -34.8485 1.94877 17.5478
rtibia 51.5977
rfoot -8.68772 -0.573107
rtoes -8.7797
lfemur 6.3889 -6.52477 -14.1152
ltibia 72.5402
lfoot 14.3283 -3.16785
ltoes -16.1843
117
root 8.41302 16.0909 -1.03875 -732.243 -82.9995 723.424
lowerback 7.38158 -13.7902 -0.207287
upperback 1.37706 -18.4093 0.460496
thorax -2.32199 -9.19473 2.2273
lowerneck 2.32036 11.9524 2.55375
upperneck 6.80318 16.3631 -10.5077
head 3.06143 7.87309 -3.47804
rclavicle -1.70744e-013 2.06736e-014
rhumerus -49.3976 -10.6143 -81.0648
rradius 42.6085
rwrist 6.04125
rhand -29.4299 14.9219
rfingers 7.12502
rthumb -2.76686 -15.0399
lclavicle -1.70744e-013 2.06736e-014
lhumerus -41.8009 13.3062 79.9496
lradius 122.462
lwrist 197.443
lhand -8.74135 18.9507
lfingers 7.12502
lthumb 17.1954 48.2098
rfemur -33.9638 2.40316 17.9366
rtibia 51.6999
rfoot -9.16732 -0.393636
rtoes -8.88842
lfemur 3.67977 -5.94017 -13.9963
ltibia 76.6044
lfoot 14.1479 -4.92567
ltoes -15.4714
118
root 8.29349 16.1175 -1.07156 -733.684 -83.6165 724.397
lowerback 7.84508 -13.5598 -0.377908
upperback 1.48305 -18.1201 0.338316
thorax -2.45709 -9.0477 2.26726
lowerneck 2.58274 11.9364 2.54358
upperneck 6.89592 16.3369 -10.5493
head 3.04824 7.85927 -3.5076
rclavicle 1.2721e-013 1.03368e-014
rhumerus -48.2254 -10.2466 -82.3957
rradius 43.738
rwrist 6.75587
rhand -29.9342 14.9906
rfingers 7.12502
rthumb -3.25392 -14.9644
lclavicle 1.2721e-013 1.03368e-014
lhumerus -43.2888 13.6407 79.1381
lradius 122.04
lwrist 197.773
lhand -9.04321 18.9234
lfingers 7.12502
lthumb 16.9048 48.2076
rfemur -33.0253 2.82048 18.2764
rtibia 51.7251
rfoot -9.62352 -0.165968
rtoes -9.04239
lfemur 0.859284 -5.25166 -13.8574
ltibia 80.685
lfoot 13.6411 -6.51688
ltoes -15.2489
119
root 8.18322 16.1395 -1.10237 -735.821 -84.2252 726.056
lowerback 8.37652 -13.2906 -0.596343
upperback 1.58535 -17.7859 0.19987
thorax -2.62572 -8.87683 2.32403
lowerneck 2.87117 11.8885 2.57073
upperneck 6.99004 16.2685 -10.5989
head 3.03204 7.82617 -3.54979
rclavicle 9.69634e-014 -4.77083e-015
rhumerus -47.0595 -9.78605 -83.776
rradius 44.8528
rwrist 7.4713
rhand -30.3568 15.1224
rfingers 7.12502
rthumb -3.66203 -14.8259
lclavicle 9.69634e-014 -4.77083e-015
lhumerus -44.7234 13.9308 78.3065
lradius 121.712
lwrist 198.037
lhand -9.26161 18.9705
lfingers 7.12502
lthumb 16.6946 48.2726
rfemur -32.0965 3.22336 18.5454
rtibia 51.7029
rfoot -10.0071 0.0606412
rtoes -9.13997
lfemur -2.09608 -4.45515 -13.7202
ltibia 84.7892
lfoot 13.0844 -7.75698
ltoes -14.7483
120
root 8.08285 16.1577 -1.13124 -738.582 -84.8127 728.317
lowerback 8.99188 -12.9962 -0.808838
upperback 1.68448 -17.4217 0.0388368
thorax -2.85349 -8.68917 2.37195
lowerneck 3.13106 11.8074 2.6376
upperneck 7.13801 16.1619 -10.6717
head 3.04296 7.77128 -3.60529
rclavicle 2.28975e-014 6.36111e-015
rhumerus -45.7415 -8.68311 -85.4278
rradius 45.7199
rwrist 7.6128
rhand -30.8445 15.332
rfingers 7.12502
rthumb -4.13303 -14.6077
lclavicle 2.28975e-014 6.36111e-015
lhumerus -46.0934 14.1899 77.4384
lradius 121.481
lwrist 198.167
lhand -9.44412 19.0273
lfingers 7.12502
lthumb 16.5189 48.3441
rfemur -31.1732 3.58943 18.7798
rtibia 51.6526
rfoot -10.3133 0.30555
rtoes -9.19887
lfemur -5.18128 -3.56459 -13.5552
ltibia 88.8832
lfoot 12.6038 -8.71557
ltoes -14.1935
121
root 7.98776 16.1764 -1.15898 -742.221 -85.3796 731.434
lowerback 9.64275 -12.6725 -1.03473
upperback 1.79075 -17.0246 -0.129298
thorax -3.09324 -8.48445 2.41809
lowerneck 3.4083 11.6986 2.68063
upperneck 7.27844 16.0155 -10.7405
head 3.04196 7.69674 -3.65874
rclavicle -6.6158e-014 2.46493e-014
rhumerus -44.3819 -7.11012 -87.1833
rradius 46.4718
rwrist 7.41681
rhand -31.3953 15.6677
rfingers 7.12502
rthumb -4.66488 -14.2609
lclavicle -6.6158e-014 2.46493e-014
lhumerus -47.436 14.4631 76.5782
lradius 121.369
lwrist 198.156
lhand -9.52722 19.0633
lfingers 7.12502
lthumb 16.4389 48.3868
rfemur -30.2225 3.96939 18.9804
rtibia 51.5741
rfoot -10.5941 0.548568
rtoes -9.14725
lfemur -8.33684 -2.55538 -13.39
ltibia 92.9175
lfoot 12.1122 -9.51015
ltoes -14.1154
122
root 7.89418 16.1984 -1.18553 -747.386 -85.9091 736.041
lowerback 10.3006 -12.3138 -1.27698
upperback 1.91754 -16.5886 -0.326273
thorax -3.32177 -8.26075 2.43239
lowerneck 3.70667 11.5529 2.75684
upperneck 7.56632 15.8601 -11.1844
head 2.78263 7.58522 -3.45756
rclavicle 4.19933e-014 -2.62396e-014
rhumerus -43.1462 -5.59673 -88.8571
rradius 47.3116
rwrist 7.35057
rhand -31.8423 16.1658
rfingers 7.12502
rthumb -5.09647 -13.7529
lclavicle 4.19933e-014 -2.62396e-014
lhumerus -48.6948 14.7186 75.7441
lradius 121.333
lwrist 198.025
lhand -9.54836 19.0056
lfingers 7.12502
lthumb 16.4185 48.3307
rfemur -29.1993 4.3051 19.1274
rtibia 51.4374
rfoot -10.8506 0.83678
rtoes -9.16865
lfemur -11.5 -1.40727 -13.268
ltibia 96.8129
lfoot 11.6053 -10.0704
ltoes -14.7035
